<svg xmlns="http://www.w3.org/2000/svg" width="349" height="349" viewBox="0 0 349 349">
  <g id="icon" transform="translate(-533 -98)">
    <path id="Caminho_287" data-name="Caminho 287" d="M724.564,360.158H598.593A65.669,65.669,0,0,1,533,294.564V168.593A65.668,65.668,0,0,1,598.593,103H724.564a65.681,65.681,0,0,1,65.593,65.593V294.564A65.681,65.681,0,0,1,724.564,360.158ZM598.593,139.737a28.9,28.9,0,0,0-28.857,28.857V294.564a28.9,28.9,0,0,0,28.857,28.857H724.564a28.9,28.9,0,0,0,28.857-28.857V168.593a28.9,28.9,0,0,0-28.857-28.857Z" transform="translate(0 86.842)" fill="#a2a2a2"/>
    <path id="Caminho_288" data-name="Caminho 288" d="M744.923,355.176a18.369,18.369,0,0,1-6.171-35.671,29.641,29.641,0,0,0,19.672-27.791V164.2a29.5,29.5,0,0,0-29.463-29.463H601.447a29.573,29.573,0,0,0-27.772,19.673,18.371,18.371,0,0,1-34.607-12.344A66.4,66.4,0,0,1,601.447,98H728.961a66.269,66.269,0,0,1,66.2,66.2V291.713A66.418,66.418,0,0,1,751.1,354.093,18.22,18.22,0,0,1,744.923,355.176Z" transform="translate(86.839 0)" fill="#a2a2a2"/>
  </g>
</svg>
