<svg xmlns="http://www.w3.org/2000/svg" width="339.969" height="424.711" viewBox="0 0 339.969 424.711">
  <g id="love_wedding_location_romance" data-name="love, wedding, location, romance" transform="translate(-7.5 -3.5)">
    <path id="Caminho_276" data-name="Caminho 276" d="M159.562,19.626a51.208,51.208,0,0,0-58.8,8.652,51.3,51.3,0,0,0-58.8-8.648C23.191,29.582,6.712,55.608,22.043,96.216c14.275,37.778,66.474,87.246,78.721,87.246s64.446-49.468,78.721-87.245C194.816,55.607,178.337,29.578,159.562,19.626Zm.106,69.1c-11.05,29.255-46.232,62.11-58.9,71.77-12.672-9.662-47.843-42.515-58.9-71.77C31.414,61.046,40.187,44.555,51.886,38.349a27.83,27.83,0,0,1,13-3.145A33.337,33.337,0,0,1,92.105,50.328a10.991,10.991,0,0,0,17.317,0,31.4,31.4,0,0,1,40.22-11.978c11.7,6.206,20.472,22.7,10.023,50.377Z" transform="translate(76.72 95.95)" fill="#f73859" stroke="#f73859" stroke-width="1"/>
    <path id="Caminho_277" data-name="Caminho 277" d="M177.484,4A169.678,169.678,0,0,0,8,173.484C8,294.639,158.906,427.711,177.484,427.711S346.969,294.639,346.969,173.484A169.678,169.678,0,0,0,177.484,4Zm0,401.466c-23.7-15.244-148.3-127.875-148.3-231.982a148.3,148.3,0,1,1,296.6,0C325.783,277.591,201.184,390.222,177.484,405.466Z" fill="#f73859" stroke="#f73859" stroke-width="1"/>
  </g>
</svg>
